<svg viewBox="0 0 50 50" fill="current" stroke="current" xmlns="http://www.w3.org/2000/svg">
<path d="M12.7449 7.45099H26.4312C28.1273 7.45099 29.3626 9.05883 28.9214 10.7059L23.5881 30.7647C23.5194 31.0392 23.6175 31.3235 23.8626 31.4706C24.8332 32.0784 28.4116 33.9902 31.8528 37.1373C31.9704 37.2451 34.7155 37.1079 34.8822 37.1275C37.1469 37.3235 38.7743 37.049 39.8332 41.7353C39.9214 42.1471 39.6273 42.5392 39.2057 42.5392C35.0783 42.5392 15.2547 42.5392 11.5881 42.5392C11.2547 42.5392 10.9704 42.2843 10.941 41.9412C10.7939 40.1569 10.5488 34.8529 12.6469 32.8039C12.8136 32.6471 12.892 32.4412 12.843 32.2157C12.4606 30.5098 10.7939 22.5784 10.1567 10.1765C10.0881 8.70589 11.2547 7.45099 12.7449 7.45099Z"/>
</svg>
