<svg viewBox="0 0 50 50" fill="current" stroke="current" xmlns="http://www.w3.org/2000/svg">
<path d="M41.657 13.2843C40.6178 11.8039 37.6864 8.33334 32.3237 6.92157C31.9806 6.83334 31.6178 7.05883 31.559 7.41177C31.2158 9.41177 29.8139 15.3333 25.0002 15.3333C20.1864 15.3333 18.7845 9.41177 18.4413 7.41177C18.3825 7.05883 18.0198 6.83334 17.6766 6.92157C12.3139 8.33334 9.38251 11.8039 8.34329 13.2843C8.108 13.6176 8.25506 14.0686 8.63741 14.2059C10.608 14.8922 15.8335 17.0882 15.8335 21.0784C15.8335 25.2353 11.4511 27.8333 10.0786 28.5392C9.83349 28.6667 9.70604 28.9314 9.75506 29.1961C11.1668 36.6667 17.157 42.0294 18.2551 42.9608C18.3629 43.0588 18.5002 43.1078 18.6472 43.1078H24.9904H31.3335C31.4805 43.1078 31.6178 43.0588 31.7256 42.9608C32.8237 42.0294 38.8139 36.6667 40.2256 29.1961C40.2747 28.9314 40.1472 28.6667 39.9021 28.5392C38.5296 27.8333 34.1472 25.2353 34.1472 21.0784C34.1472 17.0784 39.3727 14.8824 41.3433 14.2059C41.7453 14.0686 41.8923 13.6078 41.657 13.2843Z"/>
</svg>
