<svg width="current" height="current" viewBox="0 0 50 50" fill="current" stroke="current" xmlns="http://www.w3.org/2000/svg">
<path d="M42.2744 6.98037C38.2254 9.26468 24.9999 8.84311 24.9999 8.84311C24.9999 8.84311 11.7744 9.26468 7.7254 6.98037C7.36266 6.77449 6.89207 6.95096 6.80383 7.36272C6.45089 8.82351 5.95089 11.6961 6.89207 13.1078C6.9803 13.2353 7.10775 13.3137 7.26462 13.3529C8.4705 13.647 14.4803 14.9706 24.9999 14.9706C35.5195 14.9706 41.5293 13.647 42.7352 13.3529C42.8823 13.3137 43.0195 13.2353 43.1078 13.1078C44.0489 11.6961 43.5489 8.82351 43.2058 7.36272C43.1078 6.95096 42.6372 6.77449 42.2744 6.98037Z"/>
<path d="M9.08842 27.7843C9.08842 27.7843 9.08842 30.0784 11.3139 30.0784C13.5394 30.0784 13.5394 27.7843 13.5394 27.7843V15.4216C11.6472 15.2059 10.157 14.9804 9.07861 14.7843V27.7843H9.08842Z"/>
<path d="M15.9805 34.1176C15.9805 34.1176 15.9805 36.4118 18.206 36.4118C20.4315 36.4118 20.4315 34.1176 20.4315 34.1176V15.9216C18.804 15.8627 17.3138 15.7647 15.9707 15.6569V34.1176H15.9805Z"/>
<path d="M36.4512 27.7843C36.4512 27.7843 36.4512 30.0784 38.6767 30.0784C40.9022 30.0784 40.9022 27.7843 40.9022 27.7843V14.7843C39.8336 14.9804 38.3434 15.2157 36.4414 15.4216V27.7843H36.4512Z"/>
<path d="M29.5586 34.1176C29.5586 34.1176 29.5586 36.4118 31.7841 36.4118C34.0096 36.4118 34.0096 34.1176 34.0096 34.1176V15.6569C32.6763 15.7647 31.1861 15.8627 29.5488 15.9216V34.1176H29.5586Z"/>
<path d="M22.7744 15.9902V40.8039C22.7744 40.8039 22.7744 43.098 24.9999 43.098C27.2254 43.098 27.2254 40.8039 27.2254 40.8039V15.9902C26.4999 16 25.7646 16.0098 24.9999 16.0098C24.2352 16.0196 23.4901 16.0098 22.7744 15.9902Z"/>
</svg>
