<svg width="current" height="current" viewBox="0 0 50 50" fill="current" stroke="current" xmlns="http://www.w3.org/2000/svg">
<path d="M11.3628 34.0098C12.4608 39.7549 16.7746 43.1373 16.7746 43.1373H33.6863C33.6863 43.1373 38 39.7549 39.0981 34.0098H11.3628Z"/>
<path d="M10.9116 21.4902V12.6568C10.9116 12.0588 11.1567 11.4902 11.5881 11.0686L15.294 7.51959C15.7352 7.09803 16.3234 6.86273 16.9312 6.86273H33.6469C33.6469 6.86273 35.5097 7.2843 35.5097 9.86273C35.5097 12.4412 33.7744 12.7353 33.7744 12.7353H16.0685C16.0685 12.7353 13.7057 13.1961 13.7057 15.3529C13.7057 17.5098 13.6959 19.0784 10.9116 21.4902Z"/>
<path d="M34.6177 20.3236H34.6373C34.6373 14.7745 30.9706 14.7745 30.9706 14.7745H19.5099C19.5099 14.7745 15.8432 14.7745 15.8432 20.3236H15.8334C15.8334 20.3236 11.3628 23.4902 11.3628 30.4706H39.0981C39.0883 23.0294 34.6177 20.3236 34.6177 20.3236ZM21.4216 27.8138H18.8824V25.2745H21.4216V27.8138ZM21.4216 22.7451H18.8824V20.2059H21.4216V22.7451ZM26.4902 27.8138H23.951V25.2745H26.4902V27.8138ZM26.4902 22.7451H23.951V20.2059H26.4902V22.7451ZM31.5687 27.8138H29.0295V25.2745H31.5687V27.8138ZM31.5687 22.7451H29.0295V20.2059H31.5687V22.7451Z"/>
</svg>
