<svg width="50" height="50" viewBox="0 0 50 50" fill="current" stroke="current" xmlns="http://www.w3.org/2000/svg">
<path d="M39.3139 29.4411C39.6963 28.9804 39.8924 28.3529 39.7257 27.6764C39.5492 26.9313 38.9316 26.3137 38.1767 26.1568C37.3826 25.9902 36.6669 26.2941 36.2061 26.8235C35.7453 27.3529 36.1767 26.8627 36.1571 26.8921C36.1179 26.9411 36.0786 26.9902 36.0394 27.0392C35.5786 27.6372 34.1277 29.3627 32.8139 29.4411C31.2257 29.5392 35.2747 13.6176 35.2747 13.6176H35.2649C35.3041 13.4706 35.3335 13.3137 35.3335 13.147C35.3335 12.1862 34.559 11.4117 33.5983 11.4117C32.8041 11.4117 32.1375 11.951 31.9414 12.6764H31.9316C31.9316 12.6764 31.9218 12.7059 31.9218 12.7255C31.912 12.7745 31.9022 12.8235 31.8924 12.8725C31.6571 14.0588 30.2453 20.9117 29.1375 21.5882C27.9218 22.3235 27.9414 8.61762 27.9414 8.61762C27.9414 7.65683 27.1669 6.88232 26.2061 6.88232C25.2453 6.88232 24.4708 7.65683 24.4708 8.61762C24.4708 8.61762 24.1277 21.2157 22.7747 21.098C21.4316 20.9804 20.3532 10.6372 20.3532 10.6372C20.3532 9.67644 19.5786 8.90193 18.6179 8.90193C17.6571 8.90193 16.8826 9.67644 16.8826 10.6372C16.8826 10.7843 16.9022 10.9117 16.9414 11.049C17.2061 13.0686 18.2747 21.951 16.8826 21.951C15.3139 21.951 13.2747 15.7255 13.2747 15.7255C13.0492 15.1176 12.4708 14.6862 11.7845 14.6862C10.9022 14.6862 10.1963 15.4019 10.1963 16.2745C10.1963 16.3627 10.2061 16.4411 10.2257 16.5196L10.1963 16.5294C10.1963 16.5294 10.2159 16.598 10.2649 16.7157C10.2845 16.8039 10.3139 16.8823 10.3532 16.9608C11.3237 19.6176 16.51 34.0784 17.4708 42.6764C17.5002 42.9215 17.7061 43.1078 17.9512 43.1078H29.9022C30.1571 43.1078 30.363 42.9215 30.3924 42.6666C30.4904 41.647 30.9022 39.0588 32.4414 37.2353C34.2061 35.1372 38.3826 30.4804 39.1669 29.598C39.1865 29.5784 39.1963 29.5588 39.2159 29.5392C39.2845 29.4804 39.3237 29.4411 39.3139 29.4411Z"/>
</svg>
