<svg width="current" height="current" viewBox="0 0 50 50" fill="current" stroke="current" xmlns="http://www.w3.org/2000/svg">
<path d="M24.2842 6.89218C16.294 7.26473 10.147 14.1569 10.147 22.1569V37.902C10.147 38.1275 10.2744 38.3334 10.4803 38.4216L20.6078 43.0098C21.3725 43.353 22.2352 42.7941 22.2352 41.9608V36.3236V31.2745C22.2352 30.8922 22.0489 30.5392 21.7254 30.3236L16.4411 26.7549C15.5881 26.2451 15.0391 25.2843 15.1274 24.1961C15.2548 22.7647 16.5587 21.7255 17.9999 21.7255H22.2744C22.9117 21.7255 23.4215 22.2451 23.4215 22.8726V29.451C23.4215 29.451 23.4215 30.049 24.9999 30.049C26.5783 30.049 26.5783 29.451 26.5783 29.451V22.8726C26.5783 22.2353 27.0881 21.7255 27.7254 21.7255H31.9999C33.4411 21.7255 34.745 22.7647 34.8725 24.1961C34.9705 25.2843 34.4117 26.2451 33.5587 26.7549L28.2744 30.3236C27.9607 30.5392 27.7646 30.8922 27.7646 31.2745V36.3334V41.9706C27.7646 42.8039 28.6274 43.3628 29.3921 43.0196L39.5195 38.4314C39.7254 38.3334 39.8529 38.1373 39.8529 37.9118V21.7353C39.8627 13.2941 32.8136 6.49022 24.2842 6.89218Z"/>
</svg>
