<svg viewBox="0 0 50 50" fill="current" stroke="current" xmlns="http://www.w3.org/2000/svg">
<path d="M24.9805 10.9216L30.9805 16.9216L33.01 14.8921L24.9805 6.86273L16.9609 14.8921L18.9805 16.9216L24.9805 10.9216Z"/>
<path d="M24.9805 39.0784L18.9805 33.0784L16.9609 35.1078L24.9805 43.1373L33.01 35.1078L30.9805 33.0784L24.9805 39.0784Z"/>
<path d="M33.9609 17.7451C32.6178 18.2745 28.9217 20.5588 26.3629 22.2549C26.3236 22.2353 26.2942 22.2157 26.255 22.196C25.9903 18.7157 25.4217 13.5 24.9805 11.8823C24.5295 13.5 23.9609 18.6862 23.6864 22.1764C23.6766 22.1764 23.6668 22.1862 23.6668 22.1862C21.1864 20.3823 17.5982 17.9608 16.2844 17.3725C17.0295 18.598 19.9021 21.8333 22.0099 24.0588C21.9119 24.3529 21.8531 24.6568 21.8531 24.9902C21.8531 25.2745 21.9021 25.5392 21.9707 25.7941C19.7648 27.9313 16.7648 31.049 15.9707 32.2353C17.304 31.7059 20.9903 29.4313 23.5491 27.7255C23.5883 27.7451 23.6374 27.7745 23.6766 27.7941C23.9413 31.2745 24.5099 36.4706 24.9413 38.0882C25.3825 36.4706 25.9609 31.2647 26.2354 27.7843H26.2452C28.7256 29.5882 32.3236 32.0196 33.6374 32.6078C32.8825 31.3823 30.0001 28.1176 27.8825 25.8921C27.9707 25.6078 28.0295 25.3039 28.0295 24.9902C28.0295 24.7157 27.9805 24.4608 27.9217 24.2059C30.1472 22.0784 33.157 18.951 33.9609 17.7451Z"/>
<path d="M13.598 18.2451L6.88232 24.9706L13.5 31.5981L15.5294 29.5686L10.9313 24.9706L15.6274 20.2745L13.598 18.2451Z"/>
<path d="M36.5 18.3726L34.4706 20.402L39.0686 25L34.3726 29.6961L36.402 31.7157L43.1177 25L36.5 18.3726Z"/>
</svg>
