<svg viewBox="0 0 50 50" fill="current" stroke="current" xmlns="http://www.w3.org/2000/svg">
<path d="M5.64365 44.3953C5.64365 41.0203 5.72178 38.3062 5.64365 35.5984C5.57334 33.975 5.33896 32.439 4.95615 30.9656L4.99053 31.1187C4.52021 29.3484 4.25146 27.3156 4.25146 25.2203C4.25146 22.3984 4.74053 19.6922 5.6374 17.1781L5.58584 17.3453C8.07803 9.99998 15.8999 4.63123 24.1999 4.63123C26.8796 4.69529 29.439 4.89685 31.9562 5.23279L31.5968 5.19373C33.6374 5.40935 35.6905 5.59216 37.7452 5.67185C39.7999 5.75154 41.8202 5.67185 44.2858 5.67185C44.2858 8.11716 44.3577 10.1515 44.3374 12.2125C44.3702 15.0828 44.7062 17.8562 45.3171 20.5265L45.2671 20.264C48.2108 35.3594 36.8171 46.0328 25.7905 45.7703C23.3187 45.7187 20.8593 45.1156 18.3874 44.8875C16.2358 44.6656 14.078 44.4953 11.9187 44.4094C10.003 44.3375 8.07334 44.3968 5.64678 44.3968L5.64365 44.3953ZM25.0358 44.089C36.389 44.089 43.8843 34.9328 43.8843 25.0109C43.8843 13.8922 35.8718 6.12341 24.964 6.16248C13.8202 6.20154 6.08271 14.175 6.11553 25.0765C6.15459 36.2281 12.2499 42.4672 25.0358 44.089Z"/>
<path d="M34.1595 16.05C30.8892 23.0344 27.711 29.7187 24.2767 36.9781C24.1845 37.1422 21.1048 29.1297 21.1048 29.1297L13.2563 26.4422L34.1595 16.05Z"/>
<path d="M45.7812 11.1515V11.2562C45.7812 11.325 45.7796 11.4062 45.7796 11.489C45.7796 12.8156 45.8655 14.1219 46.0327 15.4047L46.0171 15.2531C47.3749 18.0875 48.1687 21.414 48.1687 24.9265V24.9953V24.9922C48.0843 37.7359 37.7327 48.0344 24.978 48.0344C21.9343 48.0344 19.028 47.4484 16.3655 46.3828L16.5218 46.4375C14.9395 46.2854 13.3546 46.1698 11.7671 46.0906C15.5202 48.4578 20.0858 49.8625 24.978 49.8625C38.7437 49.8625 49.914 38.7453 49.9999 25V24.9922C49.9999 24.9765 49.9999 24.9594 49.9999 24.9422C49.9999 19.7969 48.4233 15.0203 45.7265 11.0687L45.7812 11.1515Z"/>
<path d="M3.98896 36.5219C3.98896 35.7625 3.88428 34.9985 3.77959 34.2391C2.55303 31.5297 1.8374 28.3641 1.8374 25.0313C1.8374 25.0172 1.8374 25.0031 1.8374 24.9891V24.9906C1.92334 12.2547 12.2671 1.96407 25.0155 1.96407C28.4202 1.96407 31.6546 2.69845 34.5671 4.0172L34.4218 3.95782C35.828 4.08282 37.2405 4.1797 38.6468 4.23907H38.7577C34.8905 1.66876 30.139 0.137512 25.0296 0.137512C11.2687 0.137512 0.101465 11.2438 0.00146484 24.9813V24.9906V25.025C0.00146484 30.05 1.50771 34.7235 4.09365 38.6188L4.0374 38.5281C4.03115 37.861 4.01709 37.1875 3.99209 36.5203L3.98896 36.5219Z"/>
</svg>
