<svg width="50" height="50" viewBox="0 0 50 50" fill="current" stroke="current" xmlns="http://www.w3.org/2000/svg">
<path d="M9.61785 28.4314L12.3826 24.5686L15.9218 19.6275H12.3826V17.8726L25.0394 10.5686L37.6963 17.8726V22.5098L40.3826 18.7647L43.0884 22.5588V14.7647L25.0394 4.34314L6.9904 14.7647V19.6275H3.32373L6.9904 24.7549L9.61785 28.4314Z"/>
<path d="M43.0883 25.4118L40.3824 21.6274L37.6961 25.3725L34.0785 30.4314H37.6961V32.4902L25.0393 39.7941L12.3824 32.4902V27.4706L9.61769 31.3333L6.99023 27.6667V35.6078L25.0393 46.0196L43.0883 35.6078V30.4314H46.6765L43.0883 25.4118Z"/>
<path d="M16.6274 25C16.6274 29.6471 20.3921 33.4118 25.0392 33.4118C29.6863 33.4118 33.451 29.6471 33.451 25C33.451 20.353 29.6863 16.5883 25.0392 16.5883C20.3921 16.5883 16.6274 20.353 16.6274 25ZM29.3725 24.0196V25.9804H26.0196V29.3334H24.0588V25.9804H20.7059V24.0196H24.0588V20.6667H26.0196V24.0196H29.3725Z"/>
</svg>
