<svg width="50" height="50" viewBox="0 0 50 50" fill="current" stroke="current" xmlns="http://www.w3.org/2000/svg">
<path d="M25.0002 3.59802L6.46094 14.2941V35.6961L25.0002 46.4019L43.5394 35.6961V14.2941L25.0002 3.59802ZM38.6374 32.8725L25.0002 40.7451L11.3629 32.8725V17.1274L25.0002 9.25488L38.6374 17.1274V32.8725Z"/>
<path d="M16.0884 16.6275V28.3235C18.3335 35.7255 25.0001 37.2549 25.0001 37.2549C25.0001 37.2549 31.6668 35.7255 33.9119 28.3235V16.6275C33.9119 16.6275 28.7158 15.2157 25.0001 13.7451C21.2747 15.2157 16.0884 16.6275 16.0884 16.6275ZM31.9511 18.1177V28.0294C30.8433 31.4118 28.6668 33.3039 26.9609 34.3137C26.9609 34.3137 25.4609 35.1177 25.0001 35.2745V15.8628C25.6374 16.0981 26.3041 16.3432 26.9609 16.5588C28.8433 17.1961 30.7158 17.7549 31.9511 18.1177Z"/>
</svg>
